<svg xmlns="http://www.w3.org/2000/svg" xmlns:xlink="http://www.w3.org/1999/xlink" width="512" zoomAndPan="magnify" viewBox="0 0 384 383.999986" height="512" preserveAspectRatio="xMidYMid meet" version="1.0"><defs><clipPath id="47d471156a"><path d="M 64.28125 7.566406 L 320 7.566406 L 320 264 L 64.28125 264 Z M 64.28125 7.566406 " clip-rule="nonzero"/></clipPath><clipPath id="2dadee374d"><path d="M 149 348 L 235 348 L 235 376.566406 L 149 376.566406 Z M 149 348 " clip-rule="nonzero"/></clipPath></defs><g clip-path="url(#47d471156a)"><path fill="#f9f9f9" d="M 192.15625 7.566406 C 122.019531 7.566406 64.316406 65.222656 64.316406 135.296875 C 64.316406 205.371094 122.019531 263.027344 192.15625 263.027344 C 262.289062 263.027344 319.996094 205.371094 319.996094 135.296875 C 319.941406 65.277344 262.234375 7.621094 192.15625 7.566406 Z M 206.359375 233.480469 L 206.359375 203.652344 C 223.28125 197.667969 234.714844 181.644531 234.769531 163.683594 C 234.769531 155.921875 228.332031 149.492188 220.5625 149.492188 C 212.796875 149.492188 206.359375 155.921875 206.359375 163.683594 C 206.359375 171.445312 199.921875 177.875 192.15625 177.875 C 184.386719 177.875 177.949219 171.445312 177.949219 163.683594 C 177.949219 155.921875 171.515625 149.492188 163.746094 149.492188 C 155.976562 149.492188 149.542969 155.921875 149.542969 163.683594 C 149.542969 163.683594 149.542969 163.683594 149.542969 163.738281 C 149.597656 181.644531 161.027344 197.722656 177.949219 203.652344 L 177.949219 233.480469 C 129.234375 226.496094 92.722656 184.363281 92.722656 135.1875 C 92.722656 80.691406 137.613281 35.839844 192.15625 35.839844 C 246.699219 35.839844 291.585938 80.691406 291.585938 135.1875 C 291.585938 184.363281 255.078125 226.496094 206.359375 233.480469 " fill-opacity="1" fill-rule="nonzero"/></g><path fill="#f9f9f9" d="M 248.972656 291.414062 L 135.335938 291.414062 C 127.570312 291.414062 121.132812 297.789062 121.132812 305.605469 C 121.132812 313.421875 127.570312 319.796875 135.335938 319.796875 L 248.972656 319.796875 C 256.742188 319.796875 263.179688 313.421875 263.179688 305.605469 C 263.179688 297.789062 256.742188 291.414062 248.972656 291.414062 " fill-opacity="1" fill-rule="nonzero"/><g clip-path="url(#2dadee374d)"><path fill="#f9f9f9" d="M 220.5625 348.183594 L 163.746094 348.183594 C 155.976562 348.183594 149.542969 354.558594 149.542969 362.375 C 149.542969 370.191406 155.976562 376.566406 163.746094 376.566406 L 220.5625 376.566406 C 228.332031 376.566406 234.769531 370.191406 234.769531 362.375 C 234.769531 354.558594 228.332031 348.183594 220.5625 348.183594 " fill-opacity="1" fill-rule="nonzero"/></g></svg>