<svg xmlns="http://www.w3.org/2000/svg" xmlns:xlink="http://www.w3.org/1999/xlink" width="512" zoomAndPan="magnify" viewBox="0 0 384 191.999996" height="256" preserveAspectRatio="xMidYMid meet" version="1.0"><defs><g/><clipPath id="2be80a775c"><path d="M 5.414062 32.296875 L 93.914062 32.296875 L 93.914062 121 L 5.414062 121 Z M 5.414062 32.296875 " clip-rule="nonzero"/></clipPath><clipPath id="afaf35fb92"><path d="M 34 149 L 65 149 L 65 159.796875 L 34 159.796875 Z M 34 149 " clip-rule="nonzero"/></clipPath></defs><g clip-path="url(#2be80a775c)"><path fill="#f9f9f9" d="M 49.664062 32.296875 C 25.394531 32.296875 5.421875 52.21875 5.421875 76.429688 C 5.421875 100.644531 25.394531 120.566406 49.664062 120.566406 C 73.9375 120.566406 93.90625 100.644531 93.90625 76.429688 C 93.886719 52.238281 73.917969 32.316406 49.664062 32.296875 Z M 54.582031 110.355469 L 54.582031 100.050781 C 60.4375 97.980469 64.394531 92.445312 64.414062 86.238281 C 64.414062 83.558594 62.183594 81.335938 59.496094 81.335938 C 56.808594 81.335938 54.582031 83.558594 54.582031 86.238281 C 54.582031 88.921875 52.351562 91.140625 49.664062 91.140625 C 46.976562 91.140625 44.75 88.921875 44.75 86.238281 C 44.75 83.558594 42.523438 81.335938 39.832031 81.335938 C 37.144531 81.335938 34.917969 83.558594 34.917969 86.238281 C 34.917969 86.238281 34.917969 86.238281 34.917969 86.257812 C 34.9375 92.445312 38.890625 98 44.75 100.050781 L 44.75 110.355469 C 27.890625 107.941406 15.253906 93.382812 15.253906 76.390625 C 15.253906 57.5625 30.789062 42.066406 49.664062 42.066406 C 68.542969 42.066406 84.074219 57.5625 84.074219 76.390625 C 84.074219 93.382812 71.441406 107.941406 54.582031 110.355469 " fill-opacity="1" fill-rule="nonzero"/></g><path fill="#f9f9f9" d="M 69.328125 130.375 L 30 130.375 C 27.3125 130.375 25.085938 132.574219 25.085938 135.277344 C 25.085938 137.976562 27.3125 140.179688 30 140.179688 L 69.328125 140.179688 C 72.015625 140.179688 74.246094 137.976562 74.246094 135.277344 C 74.246094 132.574219 72.015625 130.375 69.328125 130.375 " fill-opacity="1" fill-rule="nonzero"/><g clip-path="url(#afaf35fb92)"><path fill="#f9f9f9" d="M 59.496094 149.988281 L 39.832031 149.988281 C 37.144531 149.988281 34.917969 152.191406 34.917969 154.890625 C 34.917969 157.59375 37.144531 159.796875 39.832031 159.796875 L 59.496094 159.796875 C 62.183594 159.796875 64.414062 157.59375 64.414062 154.890625 C 64.414062 152.191406 62.183594 149.988281 59.496094 149.988281 " fill-opacity="1" fill-rule="nonzero"/></g><g fill="#8a42f2" fill-opacity="0.4"><g transform="translate(255.0043, 115.345042)"><g><path d="M 3.710938 -4.019531 C 3.710938 -3.503906 3.8125 -3.039062 4.019531 -2.578125 C 4.226562 -2.0625 4.484375 -1.648438 4.894531 -1.289062 C 5.308594 -0.875 5.773438 -0.566406 6.339844 -0.359375 C 6.855469 -0.101562 7.472656 0 8.195312 0 C 8.914062 0 9.535156 -0.101562 10.050781 -0.359375 C 10.5625 -0.617188 11.027344 -0.925781 11.390625 -1.339844 C 11.75 -1.753906 12.007812 -2.164062 12.214844 -2.679688 C 12.417969 -3.144531 12.523438 -3.605469 12.523438 -4.070312 L 12.523438 -14.273438 C 12.523438 -14.53125 12.574219 -14.738281 12.78125 -14.894531 C 12.933594 -14.996094 13.089844 -15.097656 13.191406 -15.097656 L 20.097656 -15.097656 C 20.820312 -15.097656 21.4375 -15.203125 21.953125 -15.460938 C 22.46875 -15.71875 22.933594 -16.027344 23.292969 -16.4375 C 23.652344 -16.851562 23.910156 -17.261719 24.117188 -17.777344 C 24.324219 -18.242188 24.425781 -18.707031 24.425781 -19.171875 C 24.425781 -19.632812 24.324219 -20.097656 24.117188 -20.613281 C 23.910156 -21.078125 23.652344 -21.488281 23.292969 -21.902344 C 22.878906 -22.261719 22.417969 -22.570312 21.902344 -22.828125 C 21.386719 -23.085938 20.769531 -23.242188 20.046875 -23.242188 L 13.140625 -23.242188 C 13.039062 -23.242188 12.882812 -23.292969 12.730469 -23.394531 C 12.523438 -23.5 12.472656 -23.703125 12.472656 -24.015625 L 12.472656 -27.570312 C 12.472656 -27.828125 12.523438 -28.035156 12.730469 -28.1875 C 12.882812 -28.292969 13.039062 -28.394531 13.140625 -28.394531 L 22.726562 -28.394531 C 23.449219 -28.394531 24.066406 -28.496094 24.632812 -28.753906 C 25.148438 -29.011719 25.613281 -29.320312 25.972656 -29.734375 C 26.332031 -30.09375 26.589844 -30.507812 26.796875 -31.023438 C 26.953125 -31.488281 27.054688 -31.949219 27.054688 -32.414062 C 27.054688 -32.878906 26.953125 -33.339844 26.746094 -33.855469 C 26.539062 -34.320312 26.28125 -34.734375 25.921875 -35.144531 C 25.507812 -35.507812 25.042969 -35.816406 24.53125 -36.074219 C 24.015625 -36.332031 23.394531 -36.484375 22.675781 -36.484375 L 8.089844 -36.484375 C 7.371094 -36.484375 6.699219 -36.332031 6.183594 -36.074219 C 5.667969 -35.816406 5.203125 -35.507812 4.84375 -35.09375 C 4.433594 -34.679688 4.175781 -34.269531 3.96875 -33.804688 C 3.761719 -33.289062 3.710938 -32.828125 3.710938 -32.414062 Z M 3.710938 -4.019531 "/></g></g></g><g fill="#8a42f2" fill-opacity="0.4"><g transform="translate(286.023784, 115.345042)"><g><path d="M 22.46875 -15.410156 C 24.425781 -16.492188 25.972656 -17.832031 27.054688 -19.375 C 28.085938 -20.921875 28.652344 -22.933594 28.652344 -25.300781 C 28.652344 -26.695312 28.34375 -28.085938 27.828125 -29.425781 C 27.3125 -30.765625 26.539062 -32 25.507812 -33.082031 C 24.476562 -34.113281 23.242188 -34.992188 21.746094 -35.609375 C 20.253906 -36.226562 18.550781 -36.589844 16.644531 -36.589844 L 8.246094 -36.589844 C 7.523438 -36.589844 6.855469 -36.433594 6.339844 -36.175781 C 5.824219 -35.917969 5.359375 -35.609375 5 -35.195312 C 4.585938 -34.785156 4.328125 -34.371094 4.121094 -33.910156 C 3.917969 -33.394531 3.863281 -32.929688 3.863281 -32.464844 L 3.863281 -4.121094 C 3.863281 -3.660156 3.917969 -3.195312 4.121094 -2.730469 C 4.328125 -2.214844 4.585938 -1.804688 4.945312 -1.390625 C 5.308594 -0.980469 5.773438 -0.617188 6.285156 -0.359375 C 6.800781 -0.101562 7.472656 0 8.195312 0 C 8.914062 0 9.535156 -0.101562 10.101562 -0.359375 C 10.617188 -0.617188 11.078125 -0.925781 11.441406 -1.339844 C 11.800781 -1.753906 12.058594 -2.164062 12.265625 -2.679688 C 12.417969 -3.144531 12.523438 -3.605469 12.523438 -4.070312 L 12.523438 -13.5 C 12.523438 -13.707031 12.574219 -13.863281 12.675781 -13.914062 C 12.78125 -13.964844 12.832031 -14.015625 12.882812 -14.015625 C 13.089844 -14.015625 13.347656 -13.863281 13.554688 -13.605469 L 20.769531 -2.011719 C 21.128906 -1.390625 21.644531 -0.925781 22.261719 -0.566406 C 22.878906 -0.15625 23.652344 0 24.53125 0 C 25.25 0 25.871094 -0.101562 26.382812 -0.359375 C 26.898438 -0.617188 27.363281 -0.925781 27.722656 -1.339844 C 28.085938 -1.699219 28.34375 -2.113281 28.550781 -2.628906 C 28.753906 -3.144531 28.859375 -3.605469 28.859375 -4.070312 C 28.859375 -4.792969 28.652344 -5.515625 28.238281 -6.132812 C 28.035156 -6.390625 27.621094 -7.007812 27.003906 -8.039062 C 26.382812 -9.019531 25.714844 -10.101562 24.992188 -11.285156 C 24.582031 -11.851562 24.21875 -12.417969 23.910156 -12.933594 C 23.601562 -13.449219 23.292969 -13.964844 23.035156 -14.378906 C 22.726562 -14.789062 22.570312 -15.152344 22.46875 -15.410156 Z M 12.472656 -23.035156 L 12.472656 -27.570312 C 12.472656 -27.828125 12.523438 -28.035156 12.730469 -28.1875 C 12.882812 -28.292969 13.039062 -28.394531 13.140625 -28.394531 L 16.542969 -28.394531 C 17.574219 -28.394531 18.398438 -28.085938 18.964844 -27.570312 C 19.53125 -27.054688 19.839844 -26.28125 19.839844 -25.300781 C 19.839844 -24.273438 19.53125 -23.5 18.964844 -22.984375 C 18.398438 -22.46875 17.574219 -22.210938 16.542969 -22.210938 L 13.140625 -22.210938 C 13.039062 -22.210938 12.882812 -22.261719 12.730469 -22.417969 C 12.523438 -22.519531 12.472656 -22.726562 12.472656 -23.035156 Z M 12.472656 -23.035156 "/></g></g></g><g fill="#8a42f2" fill-opacity="0.4"><g transform="translate(318.898251, 115.345042)"><g><path d="M 8.195312 0 L 22.777344 0 C 23.5 0 24.117188 -0.101562 24.683594 -0.359375 C 25.199219 -0.617188 25.664062 -0.925781 26.023438 -1.339844 C 26.382812 -1.753906 26.640625 -2.164062 26.847656 -2.679688 C 27.003906 -3.144531 27.105469 -3.605469 27.105469 -4.070312 C 27.105469 -4.535156 27.003906 -5 26.796875 -5.515625 C 26.589844 -5.976562 26.332031 -6.390625 25.972656 -6.800781 C 25.558594 -7.164062 25.097656 -7.472656 24.582031 -7.730469 C 24.066406 -7.988281 23.449219 -8.140625 22.726562 -8.140625 L 13.140625 -8.140625 C 13.039062 -8.140625 12.882812 -8.195312 12.730469 -8.296875 C 12.523438 -8.398438 12.472656 -8.605469 12.472656 -8.914062 L 12.472656 -14.273438 C 12.472656 -14.53125 12.523438 -14.738281 12.730469 -14.894531 C 12.882812 -14.996094 13.039062 -15.097656 13.140625 -15.097656 L 20.046875 -15.097656 C 20.769531 -15.097656 21.386719 -15.203125 21.902344 -15.460938 C 22.417969 -15.71875 22.878906 -16.027344 23.242188 -16.4375 C 23.601562 -16.851562 23.859375 -17.261719 24.066406 -17.777344 C 24.273438 -18.242188 24.375 -18.707031 24.375 -19.171875 C 24.375 -19.632812 24.273438 -20.097656 24.066406 -20.613281 C 23.859375 -21.078125 23.601562 -21.488281 23.242188 -21.902344 C 22.828125 -22.261719 22.363281 -22.570312 21.851562 -22.828125 C 21.335938 -23.085938 20.714844 -23.242188 19.996094 -23.242188 L 13.089844 -23.242188 C 12.984375 -23.242188 12.832031 -23.292969 12.675781 -23.394531 C 12.472656 -23.5 12.417969 -23.703125 12.417969 -24.015625 L 12.417969 -27.570312 C 12.417969 -27.828125 12.472656 -28.035156 12.675781 -28.1875 C 12.832031 -28.292969 12.984375 -28.394531 13.089844 -28.394531 L 22.675781 -28.394531 C 23.394531 -28.394531 24.015625 -28.496094 24.582031 -28.753906 C 25.097656 -29.011719 25.558594 -29.320312 25.921875 -29.734375 C 26.28125 -30.09375 26.539062 -30.507812 26.746094 -31.023438 C 26.898438 -31.488281 27.003906 -31.949219 27.003906 -32.414062 C 27.003906 -32.878906 26.898438 -33.339844 26.695312 -33.855469 C 26.488281 -34.320312 26.230469 -34.734375 25.871094 -35.144531 C 25.457031 -35.507812 24.992188 -35.816406 24.476562 -36.074219 C 23.960938 -36.332031 23.34375 -36.484375 22.621094 -36.484375 L 8.039062 -36.484375 C 7.316406 -36.484375 6.648438 -36.332031 6.132812 -36.074219 C 5.617188 -35.816406 5.152344 -35.507812 4.792969 -35.09375 C 4.378906 -34.679688 4.121094 -34.269531 3.917969 -33.804688 C 3.710938 -33.289062 3.660156 -32.828125 3.660156 -32.414062 L 3.660156 -4.019531 C 3.660156 -3.503906 3.761719 -2.988281 3.96875 -2.523438 C 4.175781 -2.011719 4.484375 -1.597656 4.894531 -1.238281 C 5.308594 -0.824219 5.773438 -0.515625 6.339844 -0.308594 C 6.90625 -0.101562 7.523438 0 8.195312 0 Z M 8.195312 0 "/></g></g></g><g fill="#8a42f2" fill-opacity="0.4"><g transform="translate(349.917735, 115.345042)"><g><path d="M 8.195312 0 L 22.777344 0 C 23.5 0 24.117188 -0.101562 24.683594 -0.359375 C 25.199219 -0.617188 25.664062 -0.925781 26.023438 -1.339844 C 26.382812 -1.753906 26.640625 -2.164062 26.847656 -2.679688 C 27.003906 -3.144531 27.105469 -3.605469 27.105469 -4.070312 C 27.105469 -4.535156 27.003906 -5 26.796875 -5.515625 C 26.589844 -5.976562 26.332031 -6.390625 25.972656 -6.800781 C 25.558594 -7.164062 25.097656 -7.472656 24.582031 -7.730469 C 24.066406 -7.988281 23.449219 -8.140625 22.726562 -8.140625 L 13.140625 -8.140625 C 13.039062 -8.140625 12.882812 -8.195312 12.730469 -8.296875 C 12.523438 -8.398438 12.472656 -8.605469 12.472656 -8.914062 L 12.472656 -14.273438 C 12.472656 -14.53125 12.523438 -14.738281 12.730469 -14.894531 C 12.882812 -14.996094 13.039062 -15.097656 13.140625 -15.097656 L 20.046875 -15.097656 C 20.769531 -15.097656 21.386719 -15.203125 21.902344 -15.460938 C 22.417969 -15.71875 22.878906 -16.027344 23.242188 -16.4375 C 23.601562 -16.851562 23.859375 -17.261719 24.066406 -17.777344 C 24.273438 -18.242188 24.375 -18.707031 24.375 -19.171875 C 24.375 -19.632812 24.273438 -20.097656 24.066406 -20.613281 C 23.859375 -21.078125 23.601562 -21.488281 23.242188 -21.902344 C 22.828125 -22.261719 22.363281 -22.570312 21.851562 -22.828125 C 21.335938 -23.085938 20.714844 -23.242188 19.996094 -23.242188 L 13.089844 -23.242188 C 12.984375 -23.242188 12.832031 -23.292969 12.675781 -23.394531 C 12.472656 -23.5 12.417969 -23.703125 12.417969 -24.015625 L 12.417969 -27.570312 C 12.417969 -27.828125 12.472656 -28.035156 12.675781 -28.1875 C 12.832031 -28.292969 12.984375 -28.394531 13.089844 -28.394531 L 22.675781 -28.394531 C 23.394531 -28.394531 24.015625 -28.496094 24.582031 -28.753906 C 25.097656 -29.011719 25.558594 -29.320312 25.921875 -29.734375 C 26.28125 -30.09375 26.539062 -30.507812 26.746094 -31.023438 C 26.898438 -31.488281 27.003906 -31.949219 27.003906 -32.414062 C 27.003906 -32.878906 26.898438 -33.339844 26.695312 -33.855469 C 26.488281 -34.320312 26.230469 -34.734375 25.871094 -35.144531 C 25.457031 -35.507812 24.992188 -35.816406 24.476562 -36.074219 C 23.960938 -36.332031 23.34375 -36.484375 22.621094 -36.484375 L 8.039062 -36.484375 C 7.316406 -36.484375 6.648438 -36.332031 6.132812 -36.074219 C 5.617188 -35.816406 5.152344 -35.507812 4.792969 -35.09375 C 4.378906 -34.679688 4.121094 -34.269531 3.917969 -33.804688 C 3.710938 -33.289062 3.660156 -32.828125 3.660156 -32.414062 L 3.660156 -4.019531 C 3.660156 -3.503906 3.761719 -2.988281 3.96875 -2.523438 C 4.175781 -2.011719 4.484375 -1.597656 4.894531 -1.238281 C 5.308594 -0.824219 5.773438 -0.515625 6.339844 -0.308594 C 6.90625 -0.101562 7.523438 0 8.195312 0 Z M 8.195312 0 "/></g></g></g><g fill="#f9f9f9" fill-opacity="1"><g transform="translate(253.728848, 114.069588)"><g><path d="M 3.710938 -4.019531 C 3.710938 -3.503906 3.8125 -3.039062 4.019531 -2.578125 C 4.226562 -2.0625 4.484375 -1.648438 4.894531 -1.289062 C 5.308594 -0.875 5.773438 -0.566406 6.339844 -0.359375 C 6.855469 -0.101562 7.472656 0 8.195312 0 C 8.914062 0 9.535156 -0.101562 10.050781 -0.359375 C 10.5625 -0.617188 11.027344 -0.925781 11.390625 -1.339844 C 11.75 -1.753906 12.007812 -2.164062 12.214844 -2.679688 C 12.417969 -3.144531 12.523438 -3.605469 12.523438 -4.070312 L 12.523438 -14.273438 C 12.523438 -14.53125 12.574219 -14.738281 12.78125 -14.894531 C 12.933594 -14.996094 13.089844 -15.097656 13.191406 -15.097656 L 20.097656 -15.097656 C 20.820312 -15.097656 21.4375 -15.203125 21.953125 -15.460938 C 22.46875 -15.71875 22.933594 -16.027344 23.292969 -16.4375 C 23.652344 -16.851562 23.910156 -17.261719 24.117188 -17.777344 C 24.324219 -18.242188 24.425781 -18.707031 24.425781 -19.171875 C 24.425781 -19.632812 24.324219 -20.097656 24.117188 -20.613281 C 23.910156 -21.078125 23.652344 -21.488281 23.292969 -21.902344 C 22.878906 -22.261719 22.417969 -22.570312 21.902344 -22.828125 C 21.386719 -23.085938 20.769531 -23.242188 20.046875 -23.242188 L 13.140625 -23.242188 C 13.039062 -23.242188 12.882812 -23.292969 12.730469 -23.394531 C 12.523438 -23.5 12.472656 -23.703125 12.472656 -24.015625 L 12.472656 -27.570312 C 12.472656 -27.828125 12.523438 -28.035156 12.730469 -28.1875 C 12.882812 -28.292969 13.039062 -28.394531 13.140625 -28.394531 L 22.726562 -28.394531 C 23.449219 -28.394531 24.066406 -28.496094 24.632812 -28.753906 C 25.148438 -29.011719 25.613281 -29.320312 25.972656 -29.734375 C 26.332031 -30.09375 26.589844 -30.507812 26.796875 -31.023438 C 26.953125 -31.488281 27.054688 -31.949219 27.054688 -32.414062 C 27.054688 -32.878906 26.953125 -33.339844 26.746094 -33.855469 C 26.539062 -34.320312 26.28125 -34.734375 25.921875 -35.144531 C 25.507812 -35.507812 25.042969 -35.816406 24.53125 -36.074219 C 24.015625 -36.332031 23.394531 -36.484375 22.675781 -36.484375 L 8.089844 -36.484375 C 7.371094 -36.484375 6.699219 -36.332031 6.183594 -36.074219 C 5.667969 -35.816406 5.203125 -35.507812 4.84375 -35.09375 C 4.433594 -34.679688 4.175781 -34.269531 3.96875 -33.804688 C 3.761719 -33.289062 3.710938 -32.828125 3.710938 -32.414062 Z M 3.710938 -4.019531 "/></g></g></g><g fill="#f9f9f9" fill-opacity="1"><g transform="translate(284.748332, 114.069588)"><g><path d="M 22.46875 -15.410156 C 24.425781 -16.492188 25.972656 -17.832031 27.054688 -19.375 C 28.085938 -20.921875 28.652344 -22.933594 28.652344 -25.300781 C 28.652344 -26.695312 28.34375 -28.085938 27.828125 -29.425781 C 27.3125 -30.765625 26.539062 -32 25.507812 -33.082031 C 24.476562 -34.113281 23.242188 -34.992188 21.746094 -35.609375 C 20.253906 -36.226562 18.550781 -36.589844 16.644531 -36.589844 L 8.246094 -36.589844 C 7.523438 -36.589844 6.855469 -36.433594 6.339844 -36.175781 C 5.824219 -35.917969 5.359375 -35.609375 5 -35.195312 C 4.585938 -34.785156 4.328125 -34.371094 4.121094 -33.910156 C 3.917969 -33.394531 3.863281 -32.929688 3.863281 -32.464844 L 3.863281 -4.121094 C 3.863281 -3.660156 3.917969 -3.195312 4.121094 -2.730469 C 4.328125 -2.214844 4.585938 -1.804688 4.945312 -1.390625 C 5.308594 -0.980469 5.773438 -0.617188 6.285156 -0.359375 C 6.800781 -0.101562 7.472656 0 8.195312 0 C 8.914062 0 9.535156 -0.101562 10.101562 -0.359375 C 10.617188 -0.617188 11.078125 -0.925781 11.441406 -1.339844 C 11.800781 -1.753906 12.058594 -2.164062 12.265625 -2.679688 C 12.417969 -3.144531 12.523438 -3.605469 12.523438 -4.070312 L 12.523438 -13.5 C 12.523438 -13.707031 12.574219 -13.863281 12.675781 -13.914062 C 12.78125 -13.964844 12.832031 -14.015625 12.882812 -14.015625 C 13.089844 -14.015625 13.347656 -13.863281 13.554688 -13.605469 L 20.769531 -2.011719 C 21.128906 -1.390625 21.644531 -0.925781 22.261719 -0.566406 C 22.878906 -0.15625 23.652344 0 24.53125 0 C 25.25 0 25.871094 -0.101562 26.382812 -0.359375 C 26.898438 -0.617188 27.363281 -0.925781 27.722656 -1.339844 C 28.085938 -1.699219 28.34375 -2.113281 28.550781 -2.628906 C 28.753906 -3.144531 28.859375 -3.605469 28.859375 -4.070312 C 28.859375 -4.792969 28.652344 -5.515625 28.238281 -6.132812 C 28.035156 -6.390625 27.621094 -7.007812 27.003906 -8.039062 C 26.382812 -9.019531 25.714844 -10.101562 24.992188 -11.285156 C 24.582031 -11.851562 24.21875 -12.417969 23.910156 -12.933594 C 23.601562 -13.449219 23.292969 -13.964844 23.035156 -14.378906 C 22.726562 -14.789062 22.570312 -15.152344 22.46875 -15.410156 Z M 12.472656 -23.035156 L 12.472656 -27.570312 C 12.472656 -27.828125 12.523438 -28.035156 12.730469 -28.1875 C 12.882812 -28.292969 13.039062 -28.394531 13.140625 -28.394531 L 16.542969 -28.394531 C 17.574219 -28.394531 18.398438 -28.085938 18.964844 -27.570312 C 19.53125 -27.054688 19.839844 -26.28125 19.839844 -25.300781 C 19.839844 -24.273438 19.53125 -23.5 18.964844 -22.984375 C 18.398438 -22.46875 17.574219 -22.210938 16.542969 -22.210938 L 13.140625 -22.210938 C 13.039062 -22.210938 12.882812 -22.261719 12.730469 -22.417969 C 12.523438 -22.519531 12.472656 -22.726562 12.472656 -23.035156 Z M 12.472656 -23.035156 "/></g></g></g><g fill="#f9f9f9" fill-opacity="1"><g transform="translate(317.622799, 114.069588)"><g><path d="M 8.195312 0 L 22.777344 0 C 23.5 0 24.117188 -0.101562 24.683594 -0.359375 C 25.199219 -0.617188 25.664062 -0.925781 26.023438 -1.339844 C 26.382812 -1.753906 26.640625 -2.164062 26.847656 -2.679688 C 27.003906 -3.144531 27.105469 -3.605469 27.105469 -4.070312 C 27.105469 -4.535156 27.003906 -5 26.796875 -5.515625 C 26.589844 -5.976562 26.332031 -6.390625 25.972656 -6.800781 C 25.558594 -7.164062 25.097656 -7.472656 24.582031 -7.730469 C 24.066406 -7.988281 23.449219 -8.140625 22.726562 -8.140625 L 13.140625 -8.140625 C 13.039062 -8.140625 12.882812 -8.195312 12.730469 -8.296875 C 12.523438 -8.398438 12.472656 -8.605469 12.472656 -8.914062 L 12.472656 -14.273438 C 12.472656 -14.53125 12.523438 -14.738281 12.730469 -14.894531 C 12.882812 -14.996094 13.039062 -15.097656 13.140625 -15.097656 L 20.046875 -15.097656 C 20.769531 -15.097656 21.386719 -15.203125 21.902344 -15.460938 C 22.417969 -15.71875 22.878906 -16.027344 23.242188 -16.4375 C 23.601562 -16.851562 23.859375 -17.261719 24.066406 -17.777344 C 24.273438 -18.242188 24.375 -18.707031 24.375 -19.171875 C 24.375 -19.632812 24.273438 -20.097656 24.066406 -20.613281 C 23.859375 -21.078125 23.601562 -21.488281 23.242188 -21.902344 C 22.828125 -22.261719 22.363281 -22.570312 21.851562 -22.828125 C 21.335938 -23.085938 20.714844 -23.242188 19.996094 -23.242188 L 13.089844 -23.242188 C 12.984375 -23.242188 12.832031 -23.292969 12.675781 -23.394531 C 12.472656 -23.5 12.417969 -23.703125 12.417969 -24.015625 L 12.417969 -27.570312 C 12.417969 -27.828125 12.472656 -28.035156 12.675781 -28.1875 C 12.832031 -28.292969 12.984375 -28.394531 13.089844 -28.394531 L 22.675781 -28.394531 C 23.394531 -28.394531 24.015625 -28.496094 24.582031 -28.753906 C 25.097656 -29.011719 25.558594 -29.320312 25.921875 -29.734375 C 26.28125 -30.09375 26.539062 -30.507812 26.746094 -31.023438 C 26.898438 -31.488281 27.003906 -31.949219 27.003906 -32.414062 C 27.003906 -32.878906 26.898438 -33.339844 26.695312 -33.855469 C 26.488281 -34.320312 26.230469 -34.734375 25.871094 -35.144531 C 25.457031 -35.507812 24.992188 -35.816406 24.476562 -36.074219 C 23.960938 -36.332031 23.34375 -36.484375 22.621094 -36.484375 L 8.039062 -36.484375 C 7.316406 -36.484375 6.648438 -36.332031 6.132812 -36.074219 C 5.617188 -35.816406 5.152344 -35.507812 4.792969 -35.09375 C 4.378906 -34.679688 4.121094 -34.269531 3.917969 -33.804688 C 3.710938 -33.289062 3.660156 -32.828125 3.660156 -32.414062 L 3.660156 -4.019531 C 3.660156 -3.503906 3.761719 -2.988281 3.96875 -2.523438 C 4.175781 -2.011719 4.484375 -1.597656 4.894531 -1.238281 C 5.308594 -0.824219 5.773438 -0.515625 6.339844 -0.308594 C 6.90625 -0.101562 7.523438 0 8.195312 0 Z M 8.195312 0 "/></g></g></g><g fill="#f9f9f9" fill-opacity="1"><g transform="translate(348.642283, 114.069588)"><g><path d="M 8.195312 0 L 22.777344 0 C 23.5 0 24.117188 -0.101562 24.683594 -0.359375 C 25.199219 -0.617188 25.664062 -0.925781 26.023438 -1.339844 C 26.382812 -1.753906 26.640625 -2.164062 26.847656 -2.679688 C 27.003906 -3.144531 27.105469 -3.605469 27.105469 -4.070312 C 27.105469 -4.535156 27.003906 -5 26.796875 -5.515625 C 26.589844 -5.976562 26.332031 -6.390625 25.972656 -6.800781 C 25.558594 -7.164062 25.097656 -7.472656 24.582031 -7.730469 C 24.066406 -7.988281 23.449219 -8.140625 22.726562 -8.140625 L 13.140625 -8.140625 C 13.039062 -8.140625 12.882812 -8.195312 12.730469 -8.296875 C 12.523438 -8.398438 12.472656 -8.605469 12.472656 -8.914062 L 12.472656 -14.273438 C 12.472656 -14.53125 12.523438 -14.738281 12.730469 -14.894531 C 12.882812 -14.996094 13.039062 -15.097656 13.140625 -15.097656 L 20.046875 -15.097656 C 20.769531 -15.097656 21.386719 -15.203125 21.902344 -15.460938 C 22.417969 -15.71875 22.878906 -16.027344 23.242188 -16.4375 C 23.601562 -16.851562 23.859375 -17.261719 24.066406 -17.777344 C 24.273438 -18.242188 24.375 -18.707031 24.375 -19.171875 C 24.375 -19.632812 24.273438 -20.097656 24.066406 -20.613281 C 23.859375 -21.078125 23.601562 -21.488281 23.242188 -21.902344 C 22.828125 -22.261719 22.363281 -22.570312 21.851562 -22.828125 C 21.335938 -23.085938 20.714844 -23.242188 19.996094 -23.242188 L 13.089844 -23.242188 C 12.984375 -23.242188 12.832031 -23.292969 12.675781 -23.394531 C 12.472656 -23.5 12.417969 -23.703125 12.417969 -24.015625 L 12.417969 -27.570312 C 12.417969 -27.828125 12.472656 -28.035156 12.675781 -28.1875 C 12.832031 -28.292969 12.984375 -28.394531 13.089844 -28.394531 L 22.675781 -28.394531 C 23.394531 -28.394531 24.015625 -28.496094 24.582031 -28.753906 C 25.097656 -29.011719 25.558594 -29.320312 25.921875 -29.734375 C 26.28125 -30.09375 26.539062 -30.507812 26.746094 -31.023438 C 26.898438 -31.488281 27.003906 -31.949219 27.003906 -32.414062 C 27.003906 -32.878906 26.898438 -33.339844 26.695312 -33.855469 C 26.488281 -34.320312 26.230469 -34.734375 25.871094 -35.144531 C 25.457031 -35.507812 24.992188 -35.816406 24.476562 -36.074219 C 23.960938 -36.332031 23.34375 -36.484375 22.621094 -36.484375 L 8.039062 -36.484375 C 7.316406 -36.484375 6.648438 -36.332031 6.132812 -36.074219 C 5.617188 -35.816406 5.152344 -35.507812 4.792969 -35.09375 C 4.378906 -34.679688 4.121094 -34.269531 3.917969 -33.804688 C 3.710938 -33.289062 3.660156 -32.828125 3.660156 -32.414062 L 3.660156 -4.019531 C 3.660156 -3.503906 3.761719 -2.988281 3.96875 -2.523438 C 4.175781 -2.011719 4.484375 -1.597656 4.894531 -1.238281 C 5.308594 -0.824219 5.773438 -0.515625 6.339844 -0.308594 C 6.90625 -0.101562 7.523438 0 8.195312 0 Z M 8.195312 0 "/></g></g></g><g fill="#8a42f2" fill-opacity="0.4"><g transform="translate(110.781649, 161.095039)"><g><path d="M 8.140625 -36.433594 C 7.421875 -36.433594 6.75 -36.277344 6.234375 -36.019531 C 5.71875 -35.761719 5.257812 -35.453125 4.894531 -35.042969 C 4.484375 -34.628906 4.226562 -34.21875 4.019531 -33.753906 C 3.8125 -33.238281 3.761719 -32.773438 3.761719 -32.363281 C 3.761719 -31.847656 3.863281 -31.332031 4.070312 -30.867188 C 4.277344 -30.402344 4.535156 -29.992188 4.945312 -29.632812 C 5.308594 -29.21875 5.773438 -28.910156 6.339844 -28.703125 C 6.855469 -28.496094 7.472656 -28.394531 8.195312 -28.394531 L 14.171875 -28.394531 C 14.273438 -28.394531 14.429688 -28.292969 14.582031 -28.1875 C 14.738281 -28.035156 14.839844 -27.828125 14.839844 -27.570312 L 14.839844 -4.070312 C 14.839844 -3.605469 14.894531 -3.144531 15.097656 -2.679688 C 15.304688 -2.164062 15.5625 -1.753906 15.921875 -1.339844 C 16.285156 -0.925781 16.75 -0.566406 17.261719 -0.308594 C 17.777344 -0.0507812 18.449219 0.0507812 19.171875 0.0507812 C 19.890625 0.0507812 20.511719 -0.0507812 21.078125 -0.308594 C 21.59375 -0.566406 22.054688 -0.875 22.417969 -1.289062 C 22.777344 -1.699219 23.035156 -2.113281 23.242188 -2.628906 C 23.394531 -3.09375 23.5 -3.554688 23.5 -4.019531 L 23.5 -27.519531 C 23.5 -27.777344 23.550781 -27.980469 23.757812 -28.136719 C 23.910156 -28.238281 24.066406 -28.34375 24.167969 -28.34375 L 30.148438 -28.34375 C 30.867188 -28.34375 31.488281 -28.445312 32.054688 -28.703125 C 32.570312 -28.960938 33.03125 -29.269531 33.394531 -29.683594 C 33.753906 -30.042969 34.011719 -30.457031 34.21875 -30.972656 C 34.371094 -31.488281 34.476562 -31.949219 34.476562 -32.414062 C 34.476562 -32.828125 34.371094 -33.289062 34.167969 -33.804688 C 33.960938 -34.269531 33.703125 -34.679688 33.339844 -35.09375 C 32.929688 -35.453125 32.464844 -35.761719 31.949219 -36.019531 C 31.433594 -36.277344 30.816406 -36.433594 30.09375 -36.433594 Z M 8.140625 -36.433594 "/></g></g></g><g fill="#8a42f2" fill-opacity="0.4"><g transform="translate(149.221069, 161.095039)"><g><path d="M 25.199219 -23.808594 L 13.242188 -23.808594 C 13.140625 -23.808594 12.984375 -23.859375 12.832031 -24.015625 C 12.625 -24.117188 12.574219 -24.324219 12.574219 -24.632812 L 12.574219 -32.464844 C 12.574219 -32.929688 12.472656 -33.394531 12.265625 -33.910156 C 12.058594 -34.371094 11.800781 -34.785156 11.441406 -35.195312 C 11.027344 -35.558594 10.5625 -35.867188 10.050781 -36.125 C 9.535156 -36.382812 8.914062 -36.535156 8.195312 -36.535156 C 7.472656 -36.535156 6.800781 -36.382812 6.285156 -36.125 C 5.773438 -35.867188 5.308594 -35.558594 4.945312 -35.144531 C 4.535156 -34.734375 4.277344 -34.320312 4.070312 -33.855469 C 3.863281 -33.339844 3.8125 -32.878906 3.8125 -32.414062 L 3.8125 -4.070312 C 3.8125 -3.605469 3.863281 -3.144531 4.070312 -2.679688 C 4.277344 -2.164062 4.535156 -1.753906 4.894531 -1.339844 C 5.257812 -0.925781 5.71875 -0.566406 6.234375 -0.308594 C 6.75 -0.0507812 7.421875 0.0507812 8.140625 0.0507812 C 8.863281 0.0507812 9.480469 -0.0507812 10.050781 -0.308594 C 10.5625 -0.566406 11.027344 -0.875 11.390625 -1.289062 C 11.75 -1.699219 12.007812 -2.113281 12.214844 -2.628906 C 12.367188 -3.09375 12.472656 -3.554688 12.472656 -4.019531 L 12.472656 -14.789062 C 12.472656 -15.046875 12.523438 -15.253906 12.730469 -15.410156 C 12.882812 -15.511719 13.039062 -15.613281 13.140625 -15.613281 L 25.097656 -15.613281 C 25.199219 -15.613281 25.355469 -15.511719 25.507812 -15.410156 C 25.664062 -15.253906 25.765625 -15.046875 25.765625 -14.789062 L 25.765625 -4.019531 C 25.765625 -3.554688 25.816406 -3.09375 26.023438 -2.628906 C 26.230469 -2.113281 26.488281 -1.699219 26.847656 -1.289062 C 27.210938 -0.875 27.671875 -0.515625 28.1875 -0.257812 C 28.703125 0 29.375 0.101562 30.09375 0.101562 C 30.816406 0.101562 31.433594 0 32 -0.257812 C 32.515625 -0.515625 32.980469 -0.824219 33.339844 -1.238281 C 33.703125 -1.648438 33.960938 -2.0625 34.167969 -2.578125 C 34.320312 -3.039062 34.421875 -3.503906 34.421875 -3.96875 L 34.421875 -32.363281 C 34.421875 -32.773438 34.320312 -33.238281 34.113281 -33.753906 C 33.910156 -34.21875 33.652344 -34.628906 33.289062 -35.042969 C 32.878906 -35.402344 32.414062 -35.710938 31.898438 -35.96875 C 31.382812 -36.226562 30.765625 -36.382812 30.042969 -36.382812 C 29.320312 -36.382812 28.652344 -36.226562 28.136719 -35.96875 C 27.621094 -35.710938 27.15625 -35.402344 26.796875 -34.992188 C 26.382812 -34.578125 26.128906 -34.167969 25.921875 -33.703125 C 25.714844 -33.1875 25.664062 -32.722656 25.664062 -32.3125 L 25.664062 -24.425781 C 25.664062 -24.117188 25.613281 -23.960938 25.507812 -23.910156 C 25.40625 -23.808594 25.300781 -23.808594 25.199219 -23.808594 Z M 25.199219 -23.808594 "/></g></g></g><g fill="#8a42f2" fill-opacity="0.4"><g transform="translate(187.660489, 161.095039)"><g><path d="M 3.761719 -4.019531 C 3.761719 -3.503906 3.863281 -3.039062 4.070312 -2.578125 C 4.277344 -2.0625 4.535156 -1.648438 4.945312 -1.289062 C 5.308594 -0.875 5.773438 -0.566406 6.339844 -0.359375 C 6.855469 -0.101562 7.472656 0 8.195312 0 C 8.914062 0 9.535156 -0.101562 10.101562 -0.359375 C 10.617188 -0.617188 11.078125 -0.925781 11.441406 -1.339844 C 11.800781 -1.753906 12.058594 -2.164062 12.265625 -2.679688 C 12.417969 -3.144531 12.523438 -3.605469 12.523438 -4.070312 L 12.523438 -32.414062 C 12.523438 -32.878906 12.417969 -33.339844 12.214844 -33.855469 C 12.007812 -34.320312 11.75 -34.734375 11.390625 -35.144531 C 10.976562 -35.507812 10.511719 -35.816406 9.996094 -36.074219 C 9.480469 -36.332031 8.863281 -36.484375 8.140625 -36.484375 C 7.421875 -36.484375 6.75 -36.332031 6.234375 -36.074219 C 5.71875 -35.816406 5.257812 -35.507812 4.894531 -35.09375 C 4.484375 -34.679688 4.226562 -34.269531 4.019531 -33.804688 C 3.8125 -33.289062 3.761719 -32.828125 3.761719 -32.414062 Z M 3.761719 -4.019531 "/></g></g></g><g fill="#8a42f2" fill-opacity="0.4"><g transform="translate(204.097718, 161.095039)"><g><path d="M 12.472656 -20.921875 L 29.269531 -1.496094 C 29.632812 -1.03125 30.09375 -0.671875 30.714844 -0.359375 C 31.28125 -0.0507812 31.949219 0.0507812 32.671875 0.0507812 C 33.394531 0.0507812 34.011719 -0.0507812 34.527344 -0.308594 C 35.042969 -0.566406 35.507812 -0.875 35.867188 -1.289062 C 36.226562 -1.699219 36.484375 -2.113281 36.691406 -2.628906 C 36.898438 -3.09375 37 -3.554688 37 -4.019531 L 37 -32.414062 C 37 -32.828125 36.898438 -33.289062 36.691406 -33.804688 C 36.484375 -34.269531 36.226562 -34.679688 35.867188 -35.09375 C 35.453125 -35.453125 34.992188 -35.761719 34.476562 -36.019531 C 33.960938 -36.277344 33.339844 -36.433594 32.621094 -36.433594 C 31.898438 -36.433594 31.230469 -36.277344 30.714844 -36.019531 C 30.199219 -35.761719 29.734375 -35.453125 29.375 -35.042969 C 28.960938 -34.628906 28.703125 -34.21875 28.496094 -33.753906 C 28.292969 -33.238281 28.238281 -32.773438 28.238281 -32.363281 L 28.238281 -15.769531 L 11.59375 -35.042969 C 11.183594 -35.453125 10.71875 -35.761719 10.152344 -36.074219 C 9.535156 -36.382812 8.914062 -36.535156 8.195312 -36.535156 C 7.472656 -36.535156 6.800781 -36.382812 6.285156 -36.125 C 5.773438 -35.867188 5.308594 -35.558594 4.945312 -35.144531 C 4.535156 -34.734375 4.277344 -34.320312 4.070312 -33.855469 C 3.863281 -33.339844 3.8125 -32.878906 3.8125 -32.414062 L 3.8125 -4.070312 C 3.8125 -3.605469 3.863281 -3.144531 4.070312 -2.679688 C 4.277344 -2.164062 4.535156 -1.753906 4.894531 -1.339844 C 5.257812 -0.925781 5.71875 -0.566406 6.234375 -0.308594 C 6.75 -0.0507812 7.421875 0.0507812 8.140625 0.0507812 C 8.863281 0.0507812 9.480469 -0.0507812 10.050781 -0.308594 C 10.5625 -0.566406 11.027344 -0.875 11.390625 -1.289062 C 11.75 -1.699219 12.007812 -2.113281 12.214844 -2.628906 C 12.367188 -3.09375 12.472656 -3.554688 12.472656 -4.019531 Z M 12.472656 -20.921875 "/></g></g></g><g fill="#8a42f2" fill-opacity="0.4"><g transform="translate(245.061979, 161.095039)"><g><path d="M 12.574219 -25.816406 L 12.574219 -32.464844 C 12.574219 -32.929688 12.472656 -33.394531 12.265625 -33.910156 C 12.058594 -34.371094 11.800781 -34.785156 11.441406 -35.195312 C 11.027344 -35.558594 10.5625 -35.867188 10.050781 -36.125 C 9.535156 -36.382812 8.914062 -36.535156 8.195312 -36.535156 C 7.472656 -36.535156 6.800781 -36.382812 6.285156 -36.125 C 5.773438 -35.867188 5.308594 -35.558594 4.945312 -35.144531 C 4.535156 -34.734375 4.277344 -34.320312 4.070312 -33.855469 C 3.863281 -33.339844 3.8125 -32.878906 3.8125 -32.414062 L 3.8125 -4.070312 C 3.8125 -3.605469 3.863281 -3.144531 4.070312 -2.679688 C 4.277344 -2.164062 4.535156 -1.753906 4.894531 -1.339844 C 5.257812 -0.925781 5.71875 -0.566406 6.234375 -0.308594 C 6.75 -0.0507812 7.421875 0.0507812 8.140625 0.0507812 C 8.863281 0.0507812 9.480469 -0.0507812 10.050781 -0.308594 C 10.5625 -0.566406 11.027344 -0.875 11.390625 -1.289062 C 11.75 -1.699219 12.007812 -2.113281 12.214844 -2.628906 C 12.367188 -3.09375 12.472656 -3.554688 12.472656 -4.019531 L 12.472656 -12.78125 L 25.199219 -1.082031 C 25.558594 -0.722656 25.972656 -0.414062 26.488281 -0.207031 C 27.003906 0 27.570312 0.101562 28.238281 0.101562 C 28.960938 0.101562 29.578125 0 30.148438 -0.257812 C 30.660156 -0.515625 31.125 -0.824219 31.488281 -1.238281 C 31.847656 -1.648438 32.105469 -2.0625 32.3125 -2.578125 C 32.515625 -3.09375 32.621094 -3.554688 32.621094 -4.019531 C 32.621094 -5.101562 32.15625 -6.082031 31.28125 -6.90625 L 17.832031 -19.222656 L 28.859375 -29.425781 C 29.320312 -29.835938 29.683594 -30.300781 29.890625 -30.816406 C 30.09375 -31.332031 30.199219 -31.898438 30.199219 -32.414062 C 30.199219 -32.828125 30.09375 -33.289062 29.941406 -33.804688 C 29.734375 -34.269531 29.476562 -34.734375 29.167969 -35.144531 C 28.808594 -35.558594 28.34375 -35.867188 27.828125 -36.125 C 27.3125 -36.382812 26.695312 -36.535156 25.972656 -36.535156 C 25.300781 -36.535156 24.734375 -36.433594 24.21875 -36.226562 C 23.703125 -36.019531 23.292969 -35.710938 22.933594 -35.351562 Z M 12.574219 -25.816406 "/></g></g></g><g fill="#8a42f2" fill-opacity="0.4"><g transform="translate(281.697948, 161.095039)"><g><path d="M 3.761719 -4.019531 C 3.761719 -3.503906 3.863281 -3.039062 4.070312 -2.578125 C 4.277344 -2.0625 4.535156 -1.648438 4.945312 -1.289062 C 5.308594 -0.875 5.773438 -0.566406 6.339844 -0.359375 C 6.855469 -0.101562 7.472656 0 8.195312 0 C 8.914062 0 9.535156 -0.101562 10.101562 -0.359375 C 10.617188 -0.617188 11.078125 -0.925781 11.441406 -1.339844 C 11.800781 -1.753906 12.058594 -2.164062 12.265625 -2.679688 C 12.417969 -3.144531 12.523438 -3.605469 12.523438 -4.070312 L 12.523438 -32.414062 C 12.523438 -32.878906 12.417969 -33.339844 12.214844 -33.855469 C 12.007812 -34.320312 11.75 -34.734375 11.390625 -35.144531 C 10.976562 -35.507812 10.511719 -35.816406 9.996094 -36.074219 C 9.480469 -36.332031 8.863281 -36.484375 8.140625 -36.484375 C 7.421875 -36.484375 6.75 -36.332031 6.234375 -36.074219 C 5.71875 -35.816406 5.257812 -35.507812 4.894531 -35.09375 C 4.484375 -34.679688 4.226562 -34.269531 4.019531 -33.804688 C 3.8125 -33.289062 3.761719 -32.828125 3.761719 -32.414062 Z M 3.761719 -4.019531 "/></g></g></g><g fill="#8a42f2" fill-opacity="0.4"><g transform="translate(298.135176, 161.095039)"><g><path d="M 12.472656 -20.921875 L 29.269531 -1.496094 C 29.632812 -1.03125 30.09375 -0.671875 30.714844 -0.359375 C 31.28125 -0.0507812 31.949219 0.0507812 32.671875 0.0507812 C 33.394531 0.0507812 34.011719 -0.0507812 34.527344 -0.308594 C 35.042969 -0.566406 35.507812 -0.875 35.867188 -1.289062 C 36.226562 -1.699219 36.484375 -2.113281 36.691406 -2.628906 C 36.898438 -3.09375 37 -3.554688 37 -4.019531 L 37 -32.414062 C 37 -32.828125 36.898438 -33.289062 36.691406 -33.804688 C 36.484375 -34.269531 36.226562 -34.679688 35.867188 -35.09375 C 35.453125 -35.453125 34.992188 -35.761719 34.476562 -36.019531 C 33.960938 -36.277344 33.339844 -36.433594 32.621094 -36.433594 C 31.898438 -36.433594 31.230469 -36.277344 30.714844 -36.019531 C 30.199219 -35.761719 29.734375 -35.453125 29.375 -35.042969 C 28.960938 -34.628906 28.703125 -34.21875 28.496094 -33.753906 C 28.292969 -33.238281 28.238281 -32.773438 28.238281 -32.363281 L 28.238281 -15.769531 L 11.59375 -35.042969 C 11.183594 -35.453125 10.71875 -35.761719 10.152344 -36.074219 C 9.535156 -36.382812 8.914062 -36.535156 8.195312 -36.535156 C 7.472656 -36.535156 6.800781 -36.382812 6.285156 -36.125 C 5.773438 -35.867188 5.308594 -35.558594 4.945312 -35.144531 C 4.535156 -34.734375 4.277344 -34.320312 4.070312 -33.855469 C 3.863281 -33.339844 3.8125 -32.878906 3.8125 -32.414062 L 3.8125 -4.070312 C 3.8125 -3.605469 3.863281 -3.144531 4.070312 -2.679688 C 4.277344 -2.164062 4.535156 -1.753906 4.894531 -1.339844 C 5.257812 -0.925781 5.71875 -0.566406 6.234375 -0.308594 C 6.75 -0.0507812 7.421875 0.0507812 8.140625 0.0507812 C 8.863281 0.0507812 9.480469 -0.0507812 10.050781 -0.308594 C 10.5625 -0.566406 11.027344 -0.875 11.390625 -1.289062 C 11.75 -1.699219 12.007812 -2.113281 12.214844 -2.628906 C 12.367188 -3.09375 12.472656 -3.554688 12.472656 -4.019531 Z M 12.472656 -20.921875 "/></g></g></g><g fill="#8a42f2" fill-opacity="0.4"><g transform="translate(339.099438, 161.095039)"><g><path d="M 12.523438 -18.191406 C 12.523438 -19.582031 12.730469 -20.921875 13.140625 -22.160156 C 13.554688 -23.394531 14.222656 -24.476562 15.097656 -25.40625 C 15.921875 -26.332031 17.003906 -27.054688 18.292969 -27.570312 C 19.582031 -28.085938 21.078125 -28.394531 22.777344 -28.394531 C 24.015625 -28.394531 25.25 -28.1875 26.488281 -27.828125 C 27.722656 -27.414062 28.859375 -26.796875 29.835938 -25.972656 C 30.402344 -25.40625 30.917969 -24.941406 31.433594 -24.632812 C 31.949219 -24.273438 32.621094 -24.117188 33.546875 -24.117188 C 34.269531 -24.117188 34.886719 -24.21875 35.453125 -24.476562 C 35.96875 -24.734375 36.433594 -25.042969 36.792969 -25.457031 C 37.15625 -25.871094 37.414062 -26.28125 37.617188 -26.796875 C 37.824219 -27.261719 37.929688 -27.722656 37.929688 -28.1875 C 37.929688 -29.167969 37.566406 -30.09375 36.847656 -30.917969 C 36.019531 -31.847656 35.042969 -32.671875 33.910156 -33.394531 C 32.773438 -34.113281 31.640625 -34.679688 30.402344 -35.144531 C 29.167969 -35.609375 27.878906 -35.96875 26.589844 -36.175781 C 25.25 -36.382812 24.015625 -36.535156 22.777344 -36.535156 C 20.097656 -36.535156 17.574219 -36.074219 15.253906 -35.195312 C 12.933594 -34.320312 10.925781 -33.082031 9.277344 -31.488281 C 7.574219 -29.890625 6.234375 -27.980469 5.308594 -25.765625 C 4.328125 -23.5 3.863281 -21.023438 3.863281 -18.292969 C 3.863281 -15.511719 4.328125 -13.039062 5.308594 -10.769531 C 6.234375 -8.503906 7.574219 -6.597656 9.277344 -5 C 10.925781 -3.402344 12.933594 -2.164062 15.253906 -1.289062 C 17.574219 -0.414062 20.097656 0 22.777344 0 C 25.457031 0 28.035156 -0.464844 30.558594 -1.390625 C 33.03125 -2.320312 35.144531 -3.761719 36.847656 -5.617188 C 37.207031 -6.03125 37.464844 -6.441406 37.671875 -6.855469 C 37.875 -7.265625 37.980469 -7.78125 37.980469 -8.347656 L 37.980469 -15.613281 C 37.980469 -16.078125 37.875 -16.542969 37.671875 -17.058594 C 37.464844 -17.519531 37.207031 -17.933594 36.847656 -18.34375 C 36.433594 -18.707031 35.96875 -19.015625 35.453125 -19.273438 C 34.886719 -19.53125 34.269531 -19.683594 33.597656 -19.683594 L 21.953125 -19.683594 C 21.230469 -19.683594 20.5625 -19.53125 20.046875 -19.273438 C 19.480469 -19.015625 19.015625 -18.707031 18.65625 -18.292969 C 18.292969 -17.882812 18.035156 -17.417969 17.832031 -16.953125 C 17.625 -16.4375 17.574219 -15.976562 17.574219 -15.5625 C 17.574219 -15.097656 17.625 -14.636719 17.832031 -14.171875 C 18.035156 -13.65625 18.292969 -13.242188 18.65625 -12.832031 C 19.015625 -12.417969 19.480469 -12.058594 19.996094 -11.800781 C 20.511719 -11.542969 21.179688 -11.441406 21.902344 -11.441406 L 28.550781 -11.441406 C 28.652344 -11.441406 28.753906 -11.335938 28.960938 -11.234375 C 29.117188 -11.132812 29.21875 -10.925781 29.21875 -10.667969 C 29.21875 -10.359375 29.167969 -10.152344 29.117188 -10.050781 C 29.0625 -9.945312 28.960938 -9.792969 28.808594 -9.6875 C 28.496094 -9.429688 28.085938 -9.222656 27.570312 -9.019531 C 27.054688 -8.8125 26.539062 -8.605469 26.023438 -8.503906 C 25.457031 -8.347656 24.890625 -8.246094 24.324219 -8.195312 C 23.703125 -8.089844 23.191406 -8.089844 22.726562 -8.089844 C 21.023438 -8.089844 19.53125 -8.347656 18.292969 -8.863281 C 17.003906 -9.378906 15.921875 -10.050781 15.097656 -10.976562 C 14.222656 -11.902344 13.554688 -12.933594 13.140625 -14.171875 C 12.730469 -15.410156 12.523438 -16.75 12.523438 -18.191406 Z M 12.523438 -18.191406 "/></g></g></g><g fill="#f9f9f9" fill-opacity="1"><g transform="translate(109.506197, 159.819585)"><g><path d="M 8.140625 -36.433594 C 7.421875 -36.433594 6.75 -36.277344 6.234375 -36.019531 C 5.71875 -35.761719 5.257812 -35.453125 4.894531 -35.042969 C 4.484375 -34.628906 4.226562 -34.21875 4.019531 -33.753906 C 3.8125 -33.238281 3.761719 -32.773438 3.761719 -32.363281 C 3.761719 -31.847656 3.863281 -31.332031 4.070312 -30.867188 C 4.277344 -30.402344 4.535156 -29.992188 4.945312 -29.632812 C 5.308594 -29.21875 5.773438 -28.910156 6.339844 -28.703125 C 6.855469 -28.496094 7.472656 -28.394531 8.195312 -28.394531 L 14.171875 -28.394531 C 14.273438 -28.394531 14.429688 -28.292969 14.582031 -28.1875 C 14.738281 -28.035156 14.839844 -27.828125 14.839844 -27.570312 L 14.839844 -4.070312 C 14.839844 -3.605469 14.894531 -3.144531 15.097656 -2.679688 C 15.304688 -2.164062 15.5625 -1.753906 15.921875 -1.339844 C 16.285156 -0.925781 16.75 -0.566406 17.261719 -0.308594 C 17.777344 -0.0507812 18.449219 0.0507812 19.171875 0.0507812 C 19.890625 0.0507812 20.511719 -0.0507812 21.078125 -0.308594 C 21.59375 -0.566406 22.054688 -0.875 22.417969 -1.289062 C 22.777344 -1.699219 23.035156 -2.113281 23.242188 -2.628906 C 23.394531 -3.09375 23.5 -3.554688 23.5 -4.019531 L 23.5 -27.519531 C 23.5 -27.777344 23.550781 -27.980469 23.757812 -28.136719 C 23.910156 -28.238281 24.066406 -28.34375 24.167969 -28.34375 L 30.148438 -28.34375 C 30.867188 -28.34375 31.488281 -28.445312 32.054688 -28.703125 C 32.570312 -28.960938 33.03125 -29.269531 33.394531 -29.683594 C 33.753906 -30.042969 34.011719 -30.457031 34.21875 -30.972656 C 34.371094 -31.488281 34.476562 -31.949219 34.476562 -32.414062 C 34.476562 -32.828125 34.371094 -33.289062 34.167969 -33.804688 C 33.960938 -34.269531 33.703125 -34.679688 33.339844 -35.09375 C 32.929688 -35.453125 32.464844 -35.761719 31.949219 -36.019531 C 31.433594 -36.277344 30.816406 -36.433594 30.09375 -36.433594 Z M 8.140625 -36.433594 "/></g></g></g><g fill="#f9f9f9" fill-opacity="1"><g transform="translate(147.945617, 159.819585)"><g><path d="M 25.199219 -23.808594 L 13.242188 -23.808594 C 13.140625 -23.808594 12.984375 -23.859375 12.832031 -24.015625 C 12.625 -24.117188 12.574219 -24.324219 12.574219 -24.632812 L 12.574219 -32.464844 C 12.574219 -32.929688 12.472656 -33.394531 12.265625 -33.910156 C 12.058594 -34.371094 11.800781 -34.785156 11.441406 -35.195312 C 11.027344 -35.558594 10.5625 -35.867188 10.050781 -36.125 C 9.535156 -36.382812 8.914062 -36.535156 8.195312 -36.535156 C 7.472656 -36.535156 6.800781 -36.382812 6.285156 -36.125 C 5.773438 -35.867188 5.308594 -35.558594 4.945312 -35.144531 C 4.535156 -34.734375 4.277344 -34.320312 4.070312 -33.855469 C 3.863281 -33.339844 3.8125 -32.878906 3.8125 -32.414062 L 3.8125 -4.070312 C 3.8125 -3.605469 3.863281 -3.144531 4.070312 -2.679688 C 4.277344 -2.164062 4.535156 -1.753906 4.894531 -1.339844 C 5.257812 -0.925781 5.71875 -0.566406 6.234375 -0.308594 C 6.75 -0.0507812 7.421875 0.0507812 8.140625 0.0507812 C 8.863281 0.0507812 9.480469 -0.0507812 10.050781 -0.308594 C 10.5625 -0.566406 11.027344 -0.875 11.390625 -1.289062 C 11.75 -1.699219 12.007812 -2.113281 12.214844 -2.628906 C 12.367188 -3.09375 12.472656 -3.554688 12.472656 -4.019531 L 12.472656 -14.789062 C 12.472656 -15.046875 12.523438 -15.253906 12.730469 -15.410156 C 12.882812 -15.511719 13.039062 -15.613281 13.140625 -15.613281 L 25.097656 -15.613281 C 25.199219 -15.613281 25.355469 -15.511719 25.507812 -15.410156 C 25.664062 -15.253906 25.765625 -15.046875 25.765625 -14.789062 L 25.765625 -4.019531 C 25.765625 -3.554688 25.816406 -3.09375 26.023438 -2.628906 C 26.230469 -2.113281 26.488281 -1.699219 26.847656 -1.289062 C 27.210938 -0.875 27.671875 -0.515625 28.1875 -0.257812 C 28.703125 0 29.375 0.101562 30.09375 0.101562 C 30.816406 0.101562 31.433594 0 32 -0.257812 C 32.515625 -0.515625 32.980469 -0.824219 33.339844 -1.238281 C 33.703125 -1.648438 33.960938 -2.0625 34.167969 -2.578125 C 34.320312 -3.039062 34.421875 -3.503906 34.421875 -3.96875 L 34.421875 -32.363281 C 34.421875 -32.773438 34.320312 -33.238281 34.113281 -33.753906 C 33.910156 -34.21875 33.652344 -34.628906 33.289062 -35.042969 C 32.878906 -35.402344 32.414062 -35.710938 31.898438 -35.96875 C 31.382812 -36.226562 30.765625 -36.382812 30.042969 -36.382812 C 29.320312 -36.382812 28.652344 -36.226562 28.136719 -35.96875 C 27.621094 -35.710938 27.15625 -35.402344 26.796875 -34.992188 C 26.382812 -34.578125 26.128906 -34.167969 25.921875 -33.703125 C 25.714844 -33.1875 25.664062 -32.722656 25.664062 -32.3125 L 25.664062 -24.425781 C 25.664062 -24.117188 25.613281 -23.960938 25.507812 -23.910156 C 25.40625 -23.808594 25.300781 -23.808594 25.199219 -23.808594 Z M 25.199219 -23.808594 "/></g></g></g><g fill="#f9f9f9" fill-opacity="1"><g transform="translate(186.385037, 159.819585)"><g><path d="M 3.761719 -4.019531 C 3.761719 -3.503906 3.863281 -3.039062 4.070312 -2.578125 C 4.277344 -2.0625 4.535156 -1.648438 4.945312 -1.289062 C 5.308594 -0.875 5.773438 -0.566406 6.339844 -0.359375 C 6.855469 -0.101562 7.472656 0 8.195312 0 C 8.914062 0 9.535156 -0.101562 10.101562 -0.359375 C 10.617188 -0.617188 11.078125 -0.925781 11.441406 -1.339844 C 11.800781 -1.753906 12.058594 -2.164062 12.265625 -2.679688 C 12.417969 -3.144531 12.523438 -3.605469 12.523438 -4.070312 L 12.523438 -32.414062 C 12.523438 -32.878906 12.417969 -33.339844 12.214844 -33.855469 C 12.007812 -34.320312 11.75 -34.734375 11.390625 -35.144531 C 10.976562 -35.507812 10.511719 -35.816406 9.996094 -36.074219 C 9.480469 -36.332031 8.863281 -36.484375 8.140625 -36.484375 C 7.421875 -36.484375 6.75 -36.332031 6.234375 -36.074219 C 5.71875 -35.816406 5.257812 -35.507812 4.894531 -35.09375 C 4.484375 -34.679688 4.226562 -34.269531 4.019531 -33.804688 C 3.8125 -33.289062 3.761719 -32.828125 3.761719 -32.414062 Z M 3.761719 -4.019531 "/></g></g></g><g fill="#f9f9f9" fill-opacity="1"><g transform="translate(202.822265, 159.819585)"><g><path d="M 12.472656 -20.921875 L 29.269531 -1.496094 C 29.632812 -1.03125 30.09375 -0.671875 30.714844 -0.359375 C 31.28125 -0.0507812 31.949219 0.0507812 32.671875 0.0507812 C 33.394531 0.0507812 34.011719 -0.0507812 34.527344 -0.308594 C 35.042969 -0.566406 35.507812 -0.875 35.867188 -1.289062 C 36.226562 -1.699219 36.484375 -2.113281 36.691406 -2.628906 C 36.898438 -3.09375 37 -3.554688 37 -4.019531 L 37 -32.414062 C 37 -32.828125 36.898438 -33.289062 36.691406 -33.804688 C 36.484375 -34.269531 36.226562 -34.679688 35.867188 -35.09375 C 35.453125 -35.453125 34.992188 -35.761719 34.476562 -36.019531 C 33.960938 -36.277344 33.339844 -36.433594 32.621094 -36.433594 C 31.898438 -36.433594 31.230469 -36.277344 30.714844 -36.019531 C 30.199219 -35.761719 29.734375 -35.453125 29.375 -35.042969 C 28.960938 -34.628906 28.703125 -34.21875 28.496094 -33.753906 C 28.292969 -33.238281 28.238281 -32.773438 28.238281 -32.363281 L 28.238281 -15.769531 L 11.59375 -35.042969 C 11.183594 -35.453125 10.71875 -35.761719 10.152344 -36.074219 C 9.535156 -36.382812 8.914062 -36.535156 8.195312 -36.535156 C 7.472656 -36.535156 6.800781 -36.382812 6.285156 -36.125 C 5.773438 -35.867188 5.308594 -35.558594 4.945312 -35.144531 C 4.535156 -34.734375 4.277344 -34.320312 4.070312 -33.855469 C 3.863281 -33.339844 3.8125 -32.878906 3.8125 -32.414062 L 3.8125 -4.070312 C 3.8125 -3.605469 3.863281 -3.144531 4.070312 -2.679688 C 4.277344 -2.164062 4.535156 -1.753906 4.894531 -1.339844 C 5.257812 -0.925781 5.71875 -0.566406 6.234375 -0.308594 C 6.75 -0.0507812 7.421875 0.0507812 8.140625 0.0507812 C 8.863281 0.0507812 9.480469 -0.0507812 10.050781 -0.308594 C 10.5625 -0.566406 11.027344 -0.875 11.390625 -1.289062 C 11.75 -1.699219 12.007812 -2.113281 12.214844 -2.628906 C 12.367188 -3.09375 12.472656 -3.554688 12.472656 -4.019531 Z M 12.472656 -20.921875 "/></g></g></g><g fill="#f9f9f9" fill-opacity="1"><g transform="translate(243.786527, 159.819585)"><g><path d="M 12.574219 -25.816406 L 12.574219 -32.464844 C 12.574219 -32.929688 12.472656 -33.394531 12.265625 -33.910156 C 12.058594 -34.371094 11.800781 -34.785156 11.441406 -35.195312 C 11.027344 -35.558594 10.5625 -35.867188 10.050781 -36.125 C 9.535156 -36.382812 8.914062 -36.535156 8.195312 -36.535156 C 7.472656 -36.535156 6.800781 -36.382812 6.285156 -36.125 C 5.773438 -35.867188 5.308594 -35.558594 4.945312 -35.144531 C 4.535156 -34.734375 4.277344 -34.320312 4.070312 -33.855469 C 3.863281 -33.339844 3.8125 -32.878906 3.8125 -32.414062 L 3.8125 -4.070312 C 3.8125 -3.605469 3.863281 -3.144531 4.070312 -2.679688 C 4.277344 -2.164062 4.535156 -1.753906 4.894531 -1.339844 C 5.257812 -0.925781 5.71875 -0.566406 6.234375 -0.308594 C 6.75 -0.0507812 7.421875 0.0507812 8.140625 0.0507812 C 8.863281 0.0507812 9.480469 -0.0507812 10.050781 -0.308594 C 10.5625 -0.566406 11.027344 -0.875 11.390625 -1.289062 C 11.75 -1.699219 12.007812 -2.113281 12.214844 -2.628906 C 12.367188 -3.09375 12.472656 -3.554688 12.472656 -4.019531 L 12.472656 -12.78125 L 25.199219 -1.082031 C 25.558594 -0.722656 25.972656 -0.414062 26.488281 -0.207031 C 27.003906 0 27.570312 0.101562 28.238281 0.101562 C 28.960938 0.101562 29.578125 0 30.148438 -0.257812 C 30.660156 -0.515625 31.125 -0.824219 31.488281 -1.238281 C 31.847656 -1.648438 32.105469 -2.0625 32.3125 -2.578125 C 32.515625 -3.09375 32.621094 -3.554688 32.621094 -4.019531 C 32.621094 -5.101562 32.15625 -6.082031 31.28125 -6.90625 L 17.832031 -19.222656 L 28.859375 -29.425781 C 29.320312 -29.835938 29.683594 -30.300781 29.890625 -30.816406 C 30.09375 -31.332031 30.199219 -31.898438 30.199219 -32.414062 C 30.199219 -32.828125 30.09375 -33.289062 29.941406 -33.804688 C 29.734375 -34.269531 29.476562 -34.734375 29.167969 -35.144531 C 28.808594 -35.558594 28.34375 -35.867188 27.828125 -36.125 C 27.3125 -36.382812 26.695312 -36.535156 25.972656 -36.535156 C 25.300781 -36.535156 24.734375 -36.433594 24.21875 -36.226562 C 23.703125 -36.019531 23.292969 -35.710938 22.933594 -35.351562 Z M 12.574219 -25.816406 "/></g></g></g><g fill="#f9f9f9" fill-opacity="1"><g transform="translate(280.422495, 159.819585)"><g><path d="M 3.761719 -4.019531 C 3.761719 -3.503906 3.863281 -3.039062 4.070312 -2.578125 C 4.277344 -2.0625 4.535156 -1.648438 4.945312 -1.289062 C 5.308594 -0.875 5.773438 -0.566406 6.339844 -0.359375 C 6.855469 -0.101562 7.472656 0 8.195312 0 C 8.914062 0 9.535156 -0.101562 10.101562 -0.359375 C 10.617188 -0.617188 11.078125 -0.925781 11.441406 -1.339844 C 11.800781 -1.753906 12.058594 -2.164062 12.265625 -2.679688 C 12.417969 -3.144531 12.523438 -3.605469 12.523438 -4.070312 L 12.523438 -32.414062 C 12.523438 -32.878906 12.417969 -33.339844 12.214844 -33.855469 C 12.007812 -34.320312 11.75 -34.734375 11.390625 -35.144531 C 10.976562 -35.507812 10.511719 -35.816406 9.996094 -36.074219 C 9.480469 -36.332031 8.863281 -36.484375 8.140625 -36.484375 C 7.421875 -36.484375 6.75 -36.332031 6.234375 -36.074219 C 5.71875 -35.816406 5.257812 -35.507812 4.894531 -35.09375 C 4.484375 -34.679688 4.226562 -34.269531 4.019531 -33.804688 C 3.8125 -33.289062 3.761719 -32.828125 3.761719 -32.414062 Z M 3.761719 -4.019531 "/></g></g></g><g fill="#f9f9f9" fill-opacity="1"><g transform="translate(296.859724, 159.819585)"><g><path d="M 12.472656 -20.921875 L 29.269531 -1.496094 C 29.632812 -1.03125 30.09375 -0.671875 30.714844 -0.359375 C 31.28125 -0.0507812 31.949219 0.0507812 32.671875 0.0507812 C 33.394531 0.0507812 34.011719 -0.0507812 34.527344 -0.308594 C 35.042969 -0.566406 35.507812 -0.875 35.867188 -1.289062 C 36.226562 -1.699219 36.484375 -2.113281 36.691406 -2.628906 C 36.898438 -3.09375 37 -3.554688 37 -4.019531 L 37 -32.414062 C 37 -32.828125 36.898438 -33.289062 36.691406 -33.804688 C 36.484375 -34.269531 36.226562 -34.679688 35.867188 -35.09375 C 35.453125 -35.453125 34.992188 -35.761719 34.476562 -36.019531 C 33.960938 -36.277344 33.339844 -36.433594 32.621094 -36.433594 C 31.898438 -36.433594 31.230469 -36.277344 30.714844 -36.019531 C 30.199219 -35.761719 29.734375 -35.453125 29.375 -35.042969 C 28.960938 -34.628906 28.703125 -34.21875 28.496094 -33.753906 C 28.292969 -33.238281 28.238281 -32.773438 28.238281 -32.363281 L 28.238281 -15.769531 L 11.59375 -35.042969 C 11.183594 -35.453125 10.71875 -35.761719 10.152344 -36.074219 C 9.535156 -36.382812 8.914062 -36.535156 8.195312 -36.535156 C 7.472656 -36.535156 6.800781 -36.382812 6.285156 -36.125 C 5.773438 -35.867188 5.308594 -35.558594 4.945312 -35.144531 C 4.535156 -34.734375 4.277344 -34.320312 4.070312 -33.855469 C 3.863281 -33.339844 3.8125 -32.878906 3.8125 -32.414062 L 3.8125 -4.070312 C 3.8125 -3.605469 3.863281 -3.144531 4.070312 -2.679688 C 4.277344 -2.164062 4.535156 -1.753906 4.894531 -1.339844 C 5.257812 -0.925781 5.71875 -0.566406 6.234375 -0.308594 C 6.75 -0.0507812 7.421875 0.0507812 8.140625 0.0507812 C 8.863281 0.0507812 9.480469 -0.0507812 10.050781 -0.308594 C 10.5625 -0.566406 11.027344 -0.875 11.390625 -1.289062 C 11.75 -1.699219 12.007812 -2.113281 12.214844 -2.628906 C 12.367188 -3.09375 12.472656 -3.554688 12.472656 -4.019531 Z M 12.472656 -20.921875 "/></g></g></g><g fill="#f9f9f9" fill-opacity="1"><g transform="translate(337.823985, 159.819585)"><g><path d="M 12.523438 -18.191406 C 12.523438 -19.582031 12.730469 -20.921875 13.140625 -22.160156 C 13.554688 -23.394531 14.222656 -24.476562 15.097656 -25.40625 C 15.921875 -26.332031 17.003906 -27.054688 18.292969 -27.570312 C 19.582031 -28.085938 21.078125 -28.394531 22.777344 -28.394531 C 24.015625 -28.394531 25.25 -28.1875 26.488281 -27.828125 C 27.722656 -27.414062 28.859375 -26.796875 29.835938 -25.972656 C 30.402344 -25.40625 30.917969 -24.941406 31.433594 -24.632812 C 31.949219 -24.273438 32.621094 -24.117188 33.546875 -24.117188 C 34.269531 -24.117188 34.886719 -24.21875 35.453125 -24.476562 C 35.96875 -24.734375 36.433594 -25.042969 36.792969 -25.457031 C 37.15625 -25.871094 37.414062 -26.28125 37.617188 -26.796875 C 37.824219 -27.261719 37.929688 -27.722656 37.929688 -28.1875 C 37.929688 -29.167969 37.566406 -30.09375 36.847656 -30.917969 C 36.019531 -31.847656 35.042969 -32.671875 33.910156 -33.394531 C 32.773438 -34.113281 31.640625 -34.679688 30.402344 -35.144531 C 29.167969 -35.609375 27.878906 -35.96875 26.589844 -36.175781 C 25.25 -36.382812 24.015625 -36.535156 22.777344 -36.535156 C 20.097656 -36.535156 17.574219 -36.074219 15.253906 -35.195312 C 12.933594 -34.320312 10.925781 -33.082031 9.277344 -31.488281 C 7.574219 -29.890625 6.234375 -27.980469 5.308594 -25.765625 C 4.328125 -23.5 3.863281 -21.023438 3.863281 -18.292969 C 3.863281 -15.511719 4.328125 -13.039062 5.308594 -10.769531 C 6.234375 -8.503906 7.574219 -6.597656 9.277344 -5 C 10.925781 -3.402344 12.933594 -2.164062 15.253906 -1.289062 C 17.574219 -0.414062 20.097656 0 22.777344 0 C 25.457031 0 28.035156 -0.464844 30.558594 -1.390625 C 33.03125 -2.320312 35.144531 -3.761719 36.847656 -5.617188 C 37.207031 -6.03125 37.464844 -6.441406 37.671875 -6.855469 C 37.875 -7.265625 37.980469 -7.78125 37.980469 -8.347656 L 37.980469 -15.613281 C 37.980469 -16.078125 37.875 -16.542969 37.671875 -17.058594 C 37.464844 -17.519531 37.207031 -17.933594 36.847656 -18.34375 C 36.433594 -18.707031 35.96875 -19.015625 35.453125 -19.273438 C 34.886719 -19.53125 34.269531 -19.683594 33.597656 -19.683594 L 21.953125 -19.683594 C 21.230469 -19.683594 20.5625 -19.53125 20.046875 -19.273438 C 19.480469 -19.015625 19.015625 -18.707031 18.65625 -18.292969 C 18.292969 -17.882812 18.035156 -17.417969 17.832031 -16.953125 C 17.625 -16.4375 17.574219 -15.976562 17.574219 -15.5625 C 17.574219 -15.097656 17.625 -14.636719 17.832031 -14.171875 C 18.035156 -13.65625 18.292969 -13.242188 18.65625 -12.832031 C 19.015625 -12.417969 19.480469 -12.058594 19.996094 -11.800781 C 20.511719 -11.542969 21.179688 -11.441406 21.902344 -11.441406 L 28.550781 -11.441406 C 28.652344 -11.441406 28.753906 -11.335938 28.960938 -11.234375 C 29.117188 -11.132812 29.21875 -10.925781 29.21875 -10.667969 C 29.21875 -10.359375 29.167969 -10.152344 29.117188 -10.050781 C 29.0625 -9.945312 28.960938 -9.792969 28.808594 -9.6875 C 28.496094 -9.429688 28.085938 -9.222656 27.570312 -9.019531 C 27.054688 -8.8125 26.539062 -8.605469 26.023438 -8.503906 C 25.457031 -8.347656 24.890625 -8.246094 24.324219 -8.195312 C 23.703125 -8.089844 23.191406 -8.089844 22.726562 -8.089844 C 21.023438 -8.089844 19.53125 -8.347656 18.292969 -8.863281 C 17.003906 -9.378906 15.921875 -10.050781 15.097656 -10.976562 C 14.222656 -11.902344 13.554688 -12.933594 13.140625 -14.171875 C 12.730469 -15.410156 12.523438 -16.75 12.523438 -18.191406 Z M 12.523438 -18.191406 "/></g></g></g></svg>